<svg xmlns="http://www.w3.org/2000/svg" xmlns:xlink="http://www.w3.org/1999/xlink" width="320" zoomAndPan="magnify" viewBox="0 0 240 239.999995" height="320" preserveAspectRatio="xMidYMid meet" version="1.0"><defs><g/><clipPath id="aa7d159f2a"><path d="M 15.1875 127.992188 L 55.378906 127.992188 L 55.378906 144.914062 L 15.1875 144.914062 Z M 15.1875 127.992188 " clip-rule="nonzero"/></clipPath><clipPath id="6b518db9d2"><path d="M 15.1875 144.914062 L 15.1875 135.453125 L 35.273438 127.992188 L 55.359375 135.453125 L 55.359375 144.914062 L 35.273438 137.453125 Z M 15.1875 144.914062 " clip-rule="nonzero"/></clipPath><clipPath id="14eb8d7c8e"><path d="M 15.199219 128 L 55.6875 128 L 55.6875 144.914062 L 15.199219 144.914062 Z M 15.199219 128 " clip-rule="nonzero"/></clipPath><clipPath id="7542a39dd2"><path d="M 15.199219 144.914062 L 15.199219 135.460938 L 35.273438 128.003906 L 55.347656 135.460938 L 55.347656 144.914062 L 35.273438 137.457031 Z M 15.199219 144.914062 " clip-rule="nonzero"/></clipPath><clipPath id="ebe7e5dc0e"><path d="M 12.414062 107.601562 L 58.160156 107.601562 L 58.160156 126.863281 L 12.414062 126.863281 Z M 12.414062 107.601562 " clip-rule="nonzero"/></clipPath><clipPath id="51c6b5f338"><path d="M 12.414062 126.863281 L 12.414062 116.097656 L 35.277344 107.601562 L 58.140625 116.097656 L 58.140625 126.863281 L 35.277344 118.371094 Z M 12.414062 126.863281 " clip-rule="nonzero"/></clipPath><clipPath id="5c1d78803c"><path d="M 12.421875 107.363281 L 58.164062 107.363281 L 58.164062 126.863281 L 12.421875 126.863281 Z M 12.421875 107.363281 " clip-rule="nonzero"/></clipPath><clipPath id="ec49e5ce87"><path d="M 12.421875 126.863281 L 12.421875 116.101562 L 35.277344 107.609375 L 58.128906 116.101562 L 58.128906 126.863281 L 35.277344 118.375 Z M 12.421875 126.863281 " clip-rule="nonzero"/></clipPath><clipPath id="dd1912d913"><path d="M 12.414062 87.210938 L 58.160156 87.210938 L 58.160156 106.472656 L 12.414062 106.472656 Z M 12.414062 87.210938 " clip-rule="nonzero"/></clipPath><clipPath id="074df9d658"><path d="M 12.414062 106.472656 L 12.414062 95.703125 L 35.277344 87.210938 L 58.140625 95.703125 L 58.140625 106.472656 L 35.277344 97.976562 Z M 12.414062 106.472656 " clip-rule="nonzero"/></clipPath><clipPath id="59c491efae"><path d="M 12.421875 87 L 58.164062 87 L 58.164062 106.472656 L 12.421875 106.472656 Z M 12.421875 87 " clip-rule="nonzero"/></clipPath><clipPath id="a5291a0e8b"><path d="M 12.421875 106.472656 L 12.421875 95.707031 L 35.277344 87.21875 L 58.128906 95.707031 L 58.128906 106.472656 L 35.277344 97.980469 Z M 12.421875 106.472656 " clip-rule="nonzero"/></clipPath></defs><rect x="-24" width="288" fill="#ffffff" y="-23.999999" height="287.999994" fill-opacity="1"/><rect x="-24" width="288" fill="#ffffff" y="-23.999999" height="287.999994" fill-opacity="1"/><g fill="#000000" fill-opacity="1"><g transform="translate(70.572225, 128.227852)"><g><path d="M 26.53125 -41.484375 L 14.234375 0 L 0.609375 0 L 15.734375 -41.484375 Z M 32.5 -37.984375 L 46.375 0 L 32.265625 0 L 30.515625 -5.84375 L 22.96875 -5.84375 L 25.75 -15.140625 L 27.734375 -15.140625 L 26.765625 -18.515625 Z M 32.5 -37.984375 "/></g></g></g><g fill="#000000" fill-opacity="1"><g transform="translate(117.479797, 128.227852)"><g><path d="M 16.34375 -0.421875 C 11.957031 -1.710938 8.585938 -4.054688 6.234375 -7.453125 C 3.890625 -10.847656 2.71875 -15.273438 2.71875 -20.734375 C 2.71875 -26.203125 3.890625 -30.644531 6.234375 -34.0625 C 8.585938 -37.476562 11.957031 -39.8125 16.34375 -41.0625 Z M 23.328125 -32.140625 L 23.328125 -42.203125 L 25.078125 -42.203125 C 32.160156 -42.203125 37.671875 -40.394531 41.609375 -36.78125 C 45.546875 -33.164062 47.515625 -27.816406 47.515625 -20.734375 C 47.515625 -13.660156 45.546875 -8.316406 41.609375 -4.703125 C 37.671875 -1.085938 32.160156 0.71875 25.078125 0.71875 C 24.796875 0.71875 24.503906 0.71875 24.203125 0.71875 C 23.898438 0.71875 23.609375 0.695312 23.328125 0.65625 L 23.328125 -9.34375 C 23.609375 -9.300781 23.898438 -9.269531 24.203125 -9.25 C 24.503906 -9.226562 24.796875 -9.21875 25.078125 -9.21875 C 28.015625 -9.21875 30.21875 -10.113281 31.6875 -11.90625 C 33.15625 -13.695312 33.890625 -16 33.890625 -18.8125 L 33.890625 -22.671875 C 33.890625 -25.523438 33.15625 -27.835938 31.6875 -29.609375 C 30.21875 -31.378906 28.015625 -32.265625 25.078125 -32.265625 C 24.796875 -32.265625 24.503906 -32.253906 24.203125 -32.234375 C 23.898438 -32.210938 23.609375 -32.179688 23.328125 -32.140625 Z M 23.328125 -32.140625 "/></g></g></g><g fill="#000000" fill-opacity="1"><g transform="translate(167.703459, 128.227852)"><g><path d="M 22.609375 0 L 18.9375 -17.96875 L 14.171875 -41.484375 L 0.296875 -41.484375 L 10.015625 0 Z M 23.875 -41.484375 L 37.015625 -41.484375 L 42.03125 -17.96875 L 45.890625 0 L 35.640625 0 Z M 51.671875 -5.78125 L 60 -41.484375 L 46.734375 -41.484375 Z M 51.671875 -5.78125 "/></g></g></g><g fill="#000000" fill-opacity="1"><g transform="translate(73.021037, 144.230513)"><g><path d="M 3.46875 -7.453125 C 3.625 -7.453125 3.738281 -7.425781 3.8125 -7.375 C 3.882812 -7.332031 3.921875 -7.253906 3.921875 -7.140625 C 3.921875 -7.003906 3.832031 -6.894531 3.65625 -6.8125 C 3.601562 -6.789062 3.566406 -6.773438 3.546875 -6.765625 C 3.472656 -6.722656 3.421875 -6.675781 3.390625 -6.625 C 3.359375 -6.570312 3.34375 -6.46875 3.34375 -6.3125 L 3.34375 -1.125 C 3.34375 -0.988281 3.351562 -0.894531 3.375 -0.84375 C 3.394531 -0.800781 3.429688 -0.757812 3.484375 -0.71875 C 3.515625 -0.707031 3.5625 -0.6875 3.625 -0.65625 C 3.820312 -0.570312 3.921875 -0.453125 3.921875 -0.296875 C 3.921875 -0.191406 3.882812 -0.113281 3.8125 -0.0625 C 3.738281 -0.0195312 3.625 0 3.46875 0 L 0.734375 0 C 0.578125 0 0.460938 -0.0195312 0.390625 -0.0625 C 0.328125 -0.113281 0.296875 -0.191406 0.296875 -0.296875 C 0.296875 -0.453125 0.382812 -0.566406 0.5625 -0.640625 C 0.601562 -0.660156 0.632812 -0.675781 0.65625 -0.6875 C 0.738281 -0.726562 0.789062 -0.773438 0.8125 -0.828125 C 0.84375 -0.878906 0.859375 -0.988281 0.859375 -1.15625 L 0.859375 -6.3125 C 0.859375 -6.46875 0.84375 -6.570312 0.8125 -6.625 C 0.789062 -6.675781 0.738281 -6.722656 0.65625 -6.765625 C 0.632812 -6.773438 0.601562 -6.789062 0.5625 -6.8125 C 0.382812 -6.894531 0.296875 -7.003906 0.296875 -7.140625 C 0.296875 -7.253906 0.328125 -7.332031 0.390625 -7.375 C 0.460938 -7.425781 0.578125 -7.453125 0.734375 -7.453125 Z M 3.46875 -7.453125 "/></g></g></g><g fill="#000000" fill-opacity="1"><g transform="translate(77.22189, 144.230513)"><g><path d="M 6.1875 0 L 4.640625 0 L 0.859375 -6.515625 C 0.765625 -6.679688 0.609375 -6.796875 0.390625 -6.859375 C 0.179688 -6.929688 0.078125 -7.035156 0.078125 -7.171875 C 0.078125 -7.273438 0.109375 -7.347656 0.171875 -7.390625 C 0.234375 -7.429688 0.335938 -7.453125 0.484375 -7.453125 L 3.3125 -7.453125 L 6.1875 -2.484375 Z M 6.1875 -3.078125 L 5.578125 -4.125 L 5.578125 -5.5 C 5.578125 -5.832031 5.554688 -6.066406 5.515625 -6.203125 C 5.484375 -6.335938 5.421875 -6.453125 5.328125 -6.546875 C 5.265625 -6.609375 5.144531 -6.6875 4.96875 -6.78125 C 4.800781 -6.882812 4.71875 -7 4.71875 -7.125 C 4.71875 -7.238281 4.75 -7.320312 4.8125 -7.375 C 4.882812 -7.425781 5 -7.453125 5.15625 -7.453125 L 6.609375 -7.453125 C 6.765625 -7.453125 6.878906 -7.425781 6.953125 -7.375 C 7.023438 -7.320312 7.0625 -7.238281 7.0625 -7.125 C 7.0625 -7 6.972656 -6.882812 6.796875 -6.78125 C 6.617188 -6.6875 6.5 -6.609375 6.4375 -6.546875 C 6.34375 -6.460938 6.273438 -6.351562 6.234375 -6.21875 C 6.203125 -6.09375 6.1875 -5.851562 6.1875 -5.5 Z M 0.953125 -5.796875 L 1.546875 -4.765625 L 1.546875 -1.734375 C 1.546875 -1.535156 1.566406 -1.367188 1.609375 -1.234375 C 1.648438 -1.097656 1.71875 -0.988281 1.8125 -0.90625 C 1.875 -0.84375 1.988281 -0.765625 2.15625 -0.671875 C 2.332031 -0.578125 2.421875 -0.46875 2.421875 -0.34375 C 2.421875 -0.226562 2.382812 -0.140625 2.3125 -0.078125 C 2.238281 -0.0234375 2.125 0 1.96875 0 L 0.53125 0 C 0.375 0 0.257812 -0.0234375 0.1875 -0.078125 C 0.113281 -0.140625 0.078125 -0.226562 0.078125 -0.34375 C 0.078125 -0.46875 0.164062 -0.578125 0.34375 -0.671875 C 0.519531 -0.765625 0.640625 -0.84375 0.703125 -0.90625 C 0.796875 -1 0.859375 -1.109375 0.890625 -1.234375 C 0.929688 -1.367188 0.953125 -1.613281 0.953125 -1.96875 Z M 0.953125 -5.796875 "/></g></g></g><g fill="#000000" fill-opacity="1"><g transform="translate(84.355606, 144.230513)"><g><path d="M 3.703125 -3.5 L 3.703125 -4.1875 C 3.859375 -4.226562 3.972656 -4.28125 4.046875 -4.34375 C 4.128906 -4.414062 4.195312 -4.507812 4.25 -4.625 C 4.28125 -4.707031 4.320312 -4.820312 4.375 -4.96875 C 4.457031 -5.207031 4.570312 -5.328125 4.71875 -5.328125 C 4.820312 -5.328125 4.894531 -5.285156 4.9375 -5.203125 C 4.988281 -5.117188 5.015625 -4.96875 5.015625 -4.75 L 5.015625 -2.890625 C 5.015625 -2.691406 4.988281 -2.550781 4.9375 -2.46875 C 4.894531 -2.394531 4.820312 -2.359375 4.71875 -2.359375 C 4.570312 -2.359375 4.457031 -2.476562 4.375 -2.71875 C 4.320312 -2.84375 4.28125 -2.953125 4.25 -3.046875 C 4.195312 -3.160156 4.128906 -3.253906 4.046875 -3.328125 C 3.960938 -3.398438 3.847656 -3.457031 3.703125 -3.5 Z M 3.34375 -1.234375 L 3.34375 -1.03125 C 3.34375 -0.863281 3.445312 -0.742188 3.65625 -0.671875 C 3.664062 -0.660156 3.675781 -0.65625 3.6875 -0.65625 C 3.820312 -0.613281 3.910156 -0.5625 3.953125 -0.5 C 3.992188 -0.445312 4.015625 -0.378906 4.015625 -0.296875 C 4.015625 -0.191406 3.976562 -0.113281 3.90625 -0.0625 C 3.832031 -0.0195312 3.691406 0 3.484375 0 L 0.734375 0 C 0.578125 0 0.460938 -0.0195312 0.390625 -0.0625 C 0.328125 -0.113281 0.296875 -0.191406 0.296875 -0.296875 C 0.296875 -0.453125 0.382812 -0.566406 0.5625 -0.640625 C 0.601562 -0.660156 0.632812 -0.675781 0.65625 -0.6875 C 0.738281 -0.726562 0.789062 -0.773438 0.8125 -0.828125 C 0.84375 -0.878906 0.859375 -0.988281 0.859375 -1.15625 L 0.859375 -6.3125 C 0.859375 -6.46875 0.84375 -6.570312 0.8125 -6.625 C 0.789062 -6.675781 0.738281 -6.722656 0.65625 -6.765625 C 0.632812 -6.773438 0.601562 -6.789062 0.5625 -6.8125 C 0.382812 -6.894531 0.296875 -7.003906 0.296875 -7.140625 C 0.296875 -7.253906 0.328125 -7.332031 0.390625 -7.375 C 0.460938 -7.425781 0.578125 -7.453125 0.734375 -7.453125 L 3.34375 -7.453125 Z M 3.703125 -7.453125 L 5.96875 -7.453125 L 5.96875 -5.484375 C 5.96875 -5.378906 5.941406 -5.296875 5.890625 -5.234375 C 5.835938 -5.171875 5.765625 -5.140625 5.671875 -5.140625 C 5.515625 -5.140625 5.378906 -5.285156 5.265625 -5.578125 C 5.191406 -5.765625 5.125 -5.90625 5.0625 -6 C 4.925781 -6.21875 4.738281 -6.394531 4.5 -6.53125 C 4.257812 -6.664062 3.992188 -6.742188 3.703125 -6.765625 Z M 3.703125 -7.453125 "/></g></g></g><g fill="#000000" fill-opacity="1"><g transform="translate(90.901717, 144.230513)"><g><path d="M 4.375 -1.484375 L 4.375 -5.984375 C 4.375 -6.359375 4.335938 -6.609375 4.265625 -6.734375 C 4.191406 -6.867188 4.0625 -6.945312 3.875 -6.96875 L 3.875 -7.59375 C 4.875 -7.507812 5.648438 -7.128906 6.203125 -6.453125 C 6.765625 -5.773438 7.046875 -4.867188 7.046875 -3.734375 C 7.046875 -2.585938 6.765625 -1.675781 6.203125 -1 C 5.648438 -0.320312 4.875 0.0546875 3.875 0.140625 L 3.875 -0.5 C 4.0625 -0.519531 4.191406 -0.59375 4.265625 -0.71875 C 4.335938 -0.84375 4.375 -1.097656 4.375 -1.484375 Z M 3.03125 -1.484375 C 3.03125 -1.109375 3.066406 -0.851562 3.140625 -0.71875 C 3.210938 -0.59375 3.347656 -0.519531 3.546875 -0.5 L 3.546875 0.140625 C 2.546875 0.0664062 1.765625 -0.304688 1.203125 -0.984375 C 0.648438 -1.671875 0.375 -2.585938 0.375 -3.734375 C 0.375 -4.867188 0.648438 -5.773438 1.203125 -6.453125 C 1.765625 -7.128906 2.546875 -7.507812 3.546875 -7.59375 L 3.546875 -6.96875 C 3.347656 -6.945312 3.210938 -6.867188 3.140625 -6.734375 C 3.066406 -6.609375 3.03125 -6.359375 3.03125 -5.984375 Z M 3.03125 -1.484375 "/></g></g></g><g fill="#000000" fill-opacity="1"><g transform="translate(98.303462, 144.230513)"><g><path d="M 3.46875 0 L 0.734375 0 C 0.578125 0 0.460938 -0.0195312 0.390625 -0.0625 C 0.328125 -0.113281 0.296875 -0.191406 0.296875 -0.296875 C 0.296875 -0.453125 0.382812 -0.566406 0.5625 -0.640625 C 0.601562 -0.660156 0.632812 -0.675781 0.65625 -0.6875 C 0.738281 -0.726562 0.789062 -0.773438 0.8125 -0.828125 C 0.84375 -0.878906 0.859375 -0.988281 0.859375 -1.15625 L 0.859375 -6.3125 C 0.859375 -6.46875 0.84375 -6.570312 0.8125 -6.625 C 0.789062 -6.675781 0.738281 -6.722656 0.65625 -6.765625 C 0.632812 -6.773438 0.601562 -6.789062 0.5625 -6.8125 C 0.382812 -6.894531 0.296875 -7.003906 0.296875 -7.140625 C 0.296875 -7.253906 0.328125 -7.332031 0.390625 -7.375 C 0.460938 -7.425781 0.578125 -7.453125 0.734375 -7.453125 L 3.34375 -7.453125 L 3.34375 -1.0625 C 3.34375 -0.957031 3.359375 -0.878906 3.390625 -0.828125 C 3.421875 -0.773438 3.472656 -0.726562 3.546875 -0.6875 C 3.566406 -0.675781 3.597656 -0.660156 3.640625 -0.640625 C 3.816406 -0.566406 3.90625 -0.453125 3.90625 -0.296875 C 3.90625 -0.191406 3.867188 -0.113281 3.796875 -0.0625 C 3.734375 -0.0195312 3.625 0 3.46875 0 Z M 3.671875 -3.984375 C 3.898438 -3.992188 4.066406 -4.070312 4.171875 -4.21875 C 4.273438 -4.375 4.328125 -4.609375 4.328125 -4.921875 L 4.328125 -5.890625 C 4.328125 -6.203125 4.273438 -6.429688 4.171875 -6.578125 C 4.066406 -6.722656 3.898438 -6.804688 3.671875 -6.828125 L 3.671875 -7.453125 C 3.710938 -7.460938 3.757812 -7.46875 3.8125 -7.46875 C 3.875 -7.46875 3.953125 -7.46875 4.046875 -7.46875 C 4.972656 -7.46875 5.65625 -7.3125 6.09375 -7 C 6.53125 -6.6875 6.75 -6.203125 6.75 -5.546875 C 6.75 -5.023438 6.597656 -4.613281 6.296875 -4.3125 C 5.992188 -4.019531 5.535156 -3.828125 4.921875 -3.734375 C 5.546875 -3.679688 6.007812 -3.535156 6.3125 -3.296875 C 6.613281 -3.054688 6.765625 -2.722656 6.765625 -2.296875 L 6.765625 -1.34375 C 6.765625 -1.28125 6.773438 -1.234375 6.796875 -1.203125 C 6.816406 -1.171875 6.84375 -1.15625 6.875 -1.15625 C 6.90625 -1.15625 6.960938 -1.203125 7.046875 -1.296875 C 7.128906 -1.398438 7.210938 -1.453125 7.296875 -1.453125 C 7.378906 -1.453125 7.457031 -1.414062 7.53125 -1.34375 C 7.601562 -1.28125 7.640625 -1.203125 7.640625 -1.109375 C 7.640625 -0.828125 7.476562 -0.554688 7.15625 -0.296875 C 6.832031 -0.046875 6.441406 0.078125 5.984375 0.078125 C 5.429688 0.078125 5.023438 -0.0664062 4.765625 -0.359375 C 4.503906 -0.660156 4.375 -1.125 4.375 -1.75 L 4.375 -2.390625 C 4.375 -2.691406 4.316406 -2.914062 4.203125 -3.0625 C 4.097656 -3.207031 3.921875 -3.300781 3.671875 -3.34375 Z M 3.671875 -3.984375 "/></g></g></g><g fill="#000000" fill-opacity="1"><g transform="translate(105.957776, 144.230513)"><g><path d="M 4.984375 -7.453125 L 7.59375 -7.453125 C 7.757812 -7.453125 7.875 -7.425781 7.9375 -7.375 C 8.007812 -7.332031 8.046875 -7.253906 8.046875 -7.140625 C 8.046875 -7.003906 7.953125 -6.894531 7.765625 -6.8125 C 7.722656 -6.789062 7.691406 -6.773438 7.671875 -6.765625 C 7.597656 -6.734375 7.546875 -6.691406 7.515625 -6.640625 C 7.492188 -6.597656 7.484375 -6.507812 7.484375 -6.375 L 7.484375 -1.0625 C 7.484375 -0.945312 7.492188 -0.863281 7.515625 -0.8125 C 7.546875 -0.769531 7.597656 -0.726562 7.671875 -0.6875 C 7.691406 -0.675781 7.722656 -0.660156 7.765625 -0.640625 C 7.953125 -0.566406 8.046875 -0.453125 8.046875 -0.296875 C 8.046875 -0.191406 8.007812 -0.113281 7.9375 -0.0625 C 7.875 -0.0195312 7.757812 0 7.59375 0 L 4.875 0 C 4.707031 0 4.585938 -0.0195312 4.515625 -0.0625 C 4.453125 -0.113281 4.421875 -0.191406 4.421875 -0.296875 C 4.421875 -0.453125 4.507812 -0.566406 4.6875 -0.640625 C 4.726562 -0.660156 4.757812 -0.675781 4.78125 -0.6875 C 4.863281 -0.726562 4.914062 -0.773438 4.9375 -0.828125 C 4.96875 -0.878906 4.984375 -0.988281 4.984375 -1.15625 Z M 3.375 0 L 3.046875 0 L 0.96875 -6.171875 C 0.957031 -6.203125 0.941406 -6.25 0.921875 -6.3125 C 0.835938 -6.59375 0.722656 -6.765625 0.578125 -6.828125 C 0.523438 -6.847656 0.457031 -6.867188 0.375 -6.890625 C 0.175781 -6.941406 0.078125 -7.039062 0.078125 -7.1875 C 0.078125 -7.28125 0.109375 -7.347656 0.171875 -7.390625 C 0.234375 -7.429688 0.335938 -7.453125 0.484375 -7.453125 L 3.109375 -7.453125 L 4.09375 -4.5 L 4.65625 -6.390625 L 4.65625 -4.3125 Z M 0.953125 -5.34375 L 1.546875 -3.5625 L 1.546875 -1.734375 C 1.546875 -1.535156 1.566406 -1.367188 1.609375 -1.234375 C 1.648438 -1.097656 1.71875 -0.988281 1.8125 -0.90625 C 1.875 -0.84375 1.988281 -0.765625 2.15625 -0.671875 C 2.332031 -0.578125 2.421875 -0.46875 2.421875 -0.34375 C 2.421875 -0.226562 2.382812 -0.140625 2.3125 -0.078125 C 2.238281 -0.0234375 2.125 0 1.96875 0 L 0.53125 0 C 0.375 0 0.257812 -0.0234375 0.1875 -0.078125 C 0.113281 -0.140625 0.078125 -0.226562 0.078125 -0.34375 C 0.078125 -0.46875 0.164062 -0.578125 0.34375 -0.671875 C 0.519531 -0.765625 0.640625 -0.84375 0.703125 -0.90625 C 0.796875 -1 0.859375 -1.109375 0.890625 -1.234375 C 0.929688 -1.367188 0.953125 -1.613281 0.953125 -1.96875 Z M 0.953125 -5.34375 "/></g></g></g><g fill="#000000" fill-opacity="1"><g transform="translate(114.318243, 144.230513)"><g><path d="M 3.9375 -1.859375 L 2.375 -1.859375 L 2.59375 -2.625 L 3.75 -2.625 L 2.71875 -6.828125 L 2.890625 -7.453125 L 5.125 -7.453125 L 6.671875 -1.171875 C 6.679688 -1.128906 6.691406 -1.082031 6.703125 -1.03125 C 6.722656 -0.988281 6.734375 -0.960938 6.734375 -0.953125 C 6.734375 -0.847656 6.828125 -0.75 7.015625 -0.65625 C 7.203125 -0.570312 7.296875 -0.460938 7.296875 -0.328125 C 7.296875 -0.203125 7.253906 -0.113281 7.171875 -0.0625 C 7.097656 -0.0195312 6.9375 0 6.6875 0 L 4.28125 0 C 4.070312 0 3.921875 -0.0234375 3.828125 -0.078125 C 3.742188 -0.128906 3.703125 -0.21875 3.703125 -0.34375 C 3.703125 -0.46875 3.773438 -0.570312 3.921875 -0.65625 C 4.066406 -0.738281 4.140625 -0.835938 4.140625 -0.953125 C 4.140625 -0.960938 4.132812 -0.984375 4.125 -1.015625 C 4.125 -1.046875 4.117188 -1.085938 4.109375 -1.140625 Z M 2.859375 -4.984375 L 1.9375 -1.53125 C 1.925781 -1.476562 1.914062 -1.425781 1.90625 -1.375 C 1.894531 -1.320312 1.890625 -1.269531 1.890625 -1.21875 C 1.890625 -1.101562 1.914062 -1.003906 1.96875 -0.921875 C 2.019531 -0.835938 2.09375 -0.773438 2.1875 -0.734375 C 2.226562 -0.710938 2.273438 -0.691406 2.328125 -0.671875 C 2.503906 -0.585938 2.59375 -0.472656 2.59375 -0.328125 C 2.59375 -0.210938 2.550781 -0.128906 2.46875 -0.078125 C 2.394531 -0.0234375 2.265625 0 2.078125 0 L 0.78125 0 C 0.59375 0 0.460938 -0.0195312 0.390625 -0.0625 C 0.316406 -0.113281 0.28125 -0.195312 0.28125 -0.3125 C 0.28125 -0.46875 0.390625 -0.582031 0.609375 -0.65625 C 0.691406 -0.6875 0.753906 -0.710938 0.796875 -0.734375 C 0.910156 -0.796875 1.003906 -0.882812 1.078125 -1 C 1.160156 -1.125 1.234375 -1.296875 1.296875 -1.515625 L 2.5625 -6.234375 Z M 2.859375 -4.984375 "/></g></g></g><g fill="#000000" fill-opacity="1"><g transform="translate(121.921012, 144.230513)"><g><path d="M 4.78125 -7.453125 L 4.78125 -1.03125 C 4.78125 -0.863281 4.882812 -0.738281 5.09375 -0.65625 L 5.109375 -0.65625 C 5.242188 -0.613281 5.332031 -0.5625 5.375 -0.5 C 5.425781 -0.445312 5.453125 -0.378906 5.453125 -0.296875 C 5.453125 -0.179688 5.414062 -0.101562 5.34375 -0.0625 C 5.269531 -0.0195312 5.128906 0 4.921875 0 L 2.140625 0 C 1.941406 0 1.800781 -0.0195312 1.71875 -0.0625 C 1.644531 -0.101562 1.609375 -0.179688 1.609375 -0.296875 C 1.609375 -0.453125 1.726562 -0.578125 1.96875 -0.671875 C 2 -0.679688 2.023438 -0.691406 2.046875 -0.703125 C 2.140625 -0.734375 2.203125 -0.769531 2.234375 -0.8125 C 2.265625 -0.851562 2.28125 -0.945312 2.28125 -1.09375 L 2.28125 -7.453125 Z M 6.609375 -7.453125 L 6.609375 -5.234375 C 6.609375 -5.109375 6.570312 -5.007812 6.5 -4.9375 C 6.425781 -4.875 6.335938 -4.84375 6.234375 -4.84375 C 6.015625 -4.84375 5.878906 -5.007812 5.828125 -5.34375 C 5.816406 -5.4375 5.800781 -5.507812 5.78125 -5.5625 C 5.707031 -5.882812 5.613281 -6.144531 5.5 -6.34375 C 5.382812 -6.539062 5.25 -6.675781 5.09375 -6.75 L 5.09375 -7.453125 Z M 0.375 -7.453125 L 1.859375 -7.453125 L 1.859375 -6.75 C 1.710938 -6.675781 1.582031 -6.539062 1.46875 -6.34375 C 1.351562 -6.144531 1.257812 -5.882812 1.1875 -5.5625 C 1.175781 -5.507812 1.160156 -5.4375 1.140625 -5.34375 C 1.085938 -5.007812 0.953125 -4.84375 0.734375 -4.84375 C 0.609375 -4.84375 0.515625 -4.878906 0.453125 -4.953125 C 0.398438 -5.035156 0.375 -5.1875 0.375 -5.40625 Z M 0.375 -7.453125 "/></g></g></g><g fill="#000000" fill-opacity="1"><g transform="translate(128.889786, 144.230513)"><g><path d="M 3.46875 -7.453125 C 3.625 -7.453125 3.738281 -7.425781 3.8125 -7.375 C 3.882812 -7.332031 3.921875 -7.253906 3.921875 -7.140625 C 3.921875 -7.003906 3.832031 -6.894531 3.65625 -6.8125 C 3.601562 -6.789062 3.566406 -6.773438 3.546875 -6.765625 C 3.472656 -6.722656 3.421875 -6.675781 3.390625 -6.625 C 3.359375 -6.570312 3.34375 -6.46875 3.34375 -6.3125 L 3.34375 -1.125 C 3.34375 -0.988281 3.351562 -0.894531 3.375 -0.84375 C 3.394531 -0.800781 3.429688 -0.757812 3.484375 -0.71875 C 3.515625 -0.707031 3.5625 -0.6875 3.625 -0.65625 C 3.820312 -0.570312 3.921875 -0.453125 3.921875 -0.296875 C 3.921875 -0.191406 3.882812 -0.113281 3.8125 -0.0625 C 3.738281 -0.0195312 3.625 0 3.46875 0 L 0.734375 0 C 0.578125 0 0.460938 -0.0195312 0.390625 -0.0625 C 0.328125 -0.113281 0.296875 -0.191406 0.296875 -0.296875 C 0.296875 -0.453125 0.382812 -0.566406 0.5625 -0.640625 C 0.601562 -0.660156 0.632812 -0.675781 0.65625 -0.6875 C 0.738281 -0.726562 0.789062 -0.773438 0.8125 -0.828125 C 0.84375 -0.878906 0.859375 -0.988281 0.859375 -1.15625 L 0.859375 -6.3125 C 0.859375 -6.46875 0.84375 -6.570312 0.8125 -6.625 C 0.789062 -6.675781 0.738281 -6.722656 0.65625 -6.765625 C 0.632812 -6.773438 0.601562 -6.789062 0.5625 -6.8125 C 0.382812 -6.894531 0.296875 -7.003906 0.296875 -7.140625 C 0.296875 -7.253906 0.328125 -7.332031 0.390625 -7.375 C 0.460938 -7.425781 0.578125 -7.453125 0.734375 -7.453125 Z M 3.46875 -7.453125 "/></g></g></g><g fill="#000000" fill-opacity="1"><g transform="translate(133.090639, 144.230513)"><g><path d="M 4.375 -1.484375 L 4.375 -5.984375 C 4.375 -6.359375 4.335938 -6.609375 4.265625 -6.734375 C 4.191406 -6.867188 4.0625 -6.945312 3.875 -6.96875 L 3.875 -7.59375 C 4.875 -7.507812 5.648438 -7.128906 6.203125 -6.453125 C 6.765625 -5.773438 7.046875 -4.867188 7.046875 -3.734375 C 7.046875 -2.585938 6.765625 -1.675781 6.203125 -1 C 5.648438 -0.320312 4.875 0.0546875 3.875 0.140625 L 3.875 -0.5 C 4.0625 -0.519531 4.191406 -0.59375 4.265625 -0.71875 C 4.335938 -0.84375 4.375 -1.097656 4.375 -1.484375 Z M 3.03125 -1.484375 C 3.03125 -1.109375 3.066406 -0.851562 3.140625 -0.71875 C 3.210938 -0.59375 3.347656 -0.519531 3.546875 -0.5 L 3.546875 0.140625 C 2.546875 0.0664062 1.765625 -0.304688 1.203125 -0.984375 C 0.648438 -1.671875 0.375 -2.585938 0.375 -3.734375 C 0.375 -4.867188 0.648438 -5.773438 1.203125 -6.453125 C 1.765625 -7.128906 2.546875 -7.507812 3.546875 -7.59375 L 3.546875 -6.96875 C 3.347656 -6.945312 3.210938 -6.867188 3.140625 -6.734375 C 3.066406 -6.609375 3.03125 -6.359375 3.03125 -5.984375 Z M 3.03125 -1.484375 "/></g></g></g><g fill="#000000" fill-opacity="1"><g transform="translate(140.49238, 144.230513)"><g><path d="M 6.1875 0 L 4.640625 0 L 0.859375 -6.515625 C 0.765625 -6.679688 0.609375 -6.796875 0.390625 -6.859375 C 0.179688 -6.929688 0.078125 -7.035156 0.078125 -7.171875 C 0.078125 -7.273438 0.109375 -7.347656 0.171875 -7.390625 C 0.234375 -7.429688 0.335938 -7.453125 0.484375 -7.453125 L 3.3125 -7.453125 L 6.1875 -2.484375 Z M 6.1875 -3.078125 L 5.578125 -4.125 L 5.578125 -5.5 C 5.578125 -5.832031 5.554688 -6.066406 5.515625 -6.203125 C 5.484375 -6.335938 5.421875 -6.453125 5.328125 -6.546875 C 5.265625 -6.609375 5.144531 -6.6875 4.96875 -6.78125 C 4.800781 -6.882812 4.71875 -7 4.71875 -7.125 C 4.71875 -7.238281 4.75 -7.320312 4.8125 -7.375 C 4.882812 -7.425781 5 -7.453125 5.15625 -7.453125 L 6.609375 -7.453125 C 6.765625 -7.453125 6.878906 -7.425781 6.953125 -7.375 C 7.023438 -7.320312 7.0625 -7.238281 7.0625 -7.125 C 7.0625 -7 6.972656 -6.882812 6.796875 -6.78125 C 6.617188 -6.6875 6.5 -6.609375 6.4375 -6.546875 C 6.34375 -6.460938 6.273438 -6.351562 6.234375 -6.21875 C 6.203125 -6.09375 6.1875 -5.851562 6.1875 -5.5 Z M 0.953125 -5.796875 L 1.546875 -4.765625 L 1.546875 -1.734375 C 1.546875 -1.535156 1.566406 -1.367188 1.609375 -1.234375 C 1.648438 -1.097656 1.71875 -0.988281 1.8125 -0.90625 C 1.875 -0.84375 1.988281 -0.765625 2.15625 -0.671875 C 2.332031 -0.578125 2.421875 -0.46875 2.421875 -0.34375 C 2.421875 -0.226562 2.382812 -0.140625 2.3125 -0.078125 C 2.238281 -0.0234375 2.125 0 1.96875 0 L 0.53125 0 C 0.375 0 0.257812 -0.0234375 0.1875 -0.078125 C 0.113281 -0.140625 0.078125 -0.226562 0.078125 -0.34375 C 0.078125 -0.46875 0.164062 -0.578125 0.34375 -0.671875 C 0.519531 -0.765625 0.640625 -0.84375 0.703125 -0.90625 C 0.796875 -1 0.859375 -1.109375 0.890625 -1.234375 C 0.929688 -1.367188 0.953125 -1.613281 0.953125 -1.96875 Z M 0.953125 -5.796875 "/></g></g></g><g fill="#000000" fill-opacity="1"><g transform="translate(147.626096, 144.230513)"><g/></g></g><g fill="#000000" fill-opacity="1"><g transform="translate(150.878532, 144.230513)"><g><path d="M 4.78125 -7.453125 L 4.78125 -1.03125 C 4.78125 -0.863281 4.882812 -0.738281 5.09375 -0.65625 L 5.109375 -0.65625 C 5.242188 -0.613281 5.332031 -0.5625 5.375 -0.5 C 5.425781 -0.445312 5.453125 -0.378906 5.453125 -0.296875 C 5.453125 -0.179688 5.414062 -0.101562 5.34375 -0.0625 C 5.269531 -0.0195312 5.128906 0 4.921875 0 L 2.140625 0 C 1.941406 0 1.800781 -0.0195312 1.71875 -0.0625 C 1.644531 -0.101562 1.609375 -0.179688 1.609375 -0.296875 C 1.609375 -0.453125 1.726562 -0.578125 1.96875 -0.671875 C 2 -0.679688 2.023438 -0.691406 2.046875 -0.703125 C 2.140625 -0.734375 2.203125 -0.769531 2.234375 -0.8125 C 2.265625 -0.851562 2.28125 -0.945312 2.28125 -1.09375 L 2.28125 -7.453125 Z M 6.609375 -7.453125 L 6.609375 -5.234375 C 6.609375 -5.109375 6.570312 -5.007812 6.5 -4.9375 C 6.425781 -4.875 6.335938 -4.84375 6.234375 -4.84375 C 6.015625 -4.84375 5.878906 -5.007812 5.828125 -5.34375 C 5.816406 -5.4375 5.800781 -5.507812 5.78125 -5.5625 C 5.707031 -5.882812 5.613281 -6.144531 5.5 -6.34375 C 5.382812 -6.539062 5.25 -6.675781 5.09375 -6.75 L 5.09375 -7.453125 Z M 0.375 -7.453125 L 1.859375 -7.453125 L 1.859375 -6.75 C 1.710938 -6.675781 1.582031 -6.539062 1.46875 -6.34375 C 1.351562 -6.144531 1.257812 -5.882812 1.1875 -5.5625 C 1.175781 -5.507812 1.160156 -5.4375 1.140625 -5.34375 C 1.085938 -5.007812 0.953125 -4.84375 0.734375 -4.84375 C 0.609375 -4.84375 0.515625 -4.878906 0.453125 -4.953125 C 0.398438 -5.035156 0.375 -5.1875 0.375 -5.40625 Z M 0.375 -7.453125 "/></g></g></g><g fill="#000000" fill-opacity="1"><g transform="translate(157.847306, 144.230513)"><g><path d="M 3.703125 -3.5 L 3.703125 -4.1875 C 3.859375 -4.226562 3.972656 -4.28125 4.046875 -4.34375 C 4.128906 -4.414062 4.195312 -4.507812 4.25 -4.625 C 4.28125 -4.707031 4.320312 -4.820312 4.375 -4.96875 C 4.457031 -5.207031 4.570312 -5.328125 4.71875 -5.328125 C 4.820312 -5.328125 4.894531 -5.285156 4.9375 -5.203125 C 4.988281 -5.117188 5.015625 -4.96875 5.015625 -4.75 L 5.015625 -2.890625 C 5.015625 -2.691406 4.988281 -2.550781 4.9375 -2.46875 C 4.894531 -2.394531 4.820312 -2.359375 4.71875 -2.359375 C 4.570312 -2.359375 4.457031 -2.476562 4.375 -2.71875 C 4.320312 -2.84375 4.28125 -2.953125 4.25 -3.046875 C 4.195312 -3.160156 4.128906 -3.253906 4.046875 -3.328125 C 3.960938 -3.398438 3.847656 -3.457031 3.703125 -3.5 Z M 3.703125 0 L 3.703125 -0.6875 C 4.035156 -0.71875 4.316406 -0.796875 4.546875 -0.921875 C 4.785156 -1.054688 4.976562 -1.242188 5.125 -1.484375 C 5.1875 -1.578125 5.242188 -1.722656 5.296875 -1.921875 C 5.390625 -2.222656 5.519531 -2.375 5.6875 -2.375 C 5.820312 -2.375 5.914062 -2.320312 5.96875 -2.21875 C 6.019531 -2.113281 6.046875 -1.910156 6.046875 -1.609375 L 6.046875 0 Z M 0.734375 0 C 0.578125 0 0.460938 -0.0195312 0.390625 -0.0625 C 0.328125 -0.113281 0.296875 -0.191406 0.296875 -0.296875 C 0.296875 -0.453125 0.382812 -0.566406 0.5625 -0.640625 C 0.601562 -0.660156 0.632812 -0.675781 0.65625 -0.6875 C 0.738281 -0.726562 0.789062 -0.773438 0.8125 -0.828125 C 0.84375 -0.878906 0.859375 -0.988281 0.859375 -1.15625 L 0.859375 -6.3125 C 0.859375 -6.46875 0.84375 -6.570312 0.8125 -6.625 C 0.789062 -6.675781 0.738281 -6.722656 0.65625 -6.765625 C 0.632812 -6.773438 0.601562 -6.789062 0.5625 -6.8125 C 0.382812 -6.894531 0.296875 -7.003906 0.296875 -7.140625 C 0.296875 -7.253906 0.328125 -7.332031 0.390625 -7.375 C 0.460938 -7.425781 0.578125 -7.453125 0.734375 -7.453125 L 3.34375 -7.453125 L 3.34375 0 Z M 3.703125 -7.453125 L 5.96875 -7.453125 L 5.96875 -5.46875 C 5.96875 -5.375 5.941406 -5.296875 5.890625 -5.234375 C 5.835938 -5.179688 5.765625 -5.15625 5.671875 -5.15625 C 5.515625 -5.15625 5.378906 -5.296875 5.265625 -5.578125 C 5.191406 -5.765625 5.125 -5.90625 5.0625 -6 C 4.925781 -6.21875 4.738281 -6.394531 4.5 -6.53125 C 4.257812 -6.664062 3.992188 -6.742188 3.703125 -6.765625 Z M 3.703125 -7.453125 "/></g></g></g><g fill="#000000" fill-opacity="1"><g transform="translate(164.444962, 144.230513)"><g><path d="M 3.625 -0.609375 L 3.625 0.140625 C 2.601562 0.0859375 1.804688 -0.273438 1.234375 -0.953125 C 0.660156 -1.640625 0.375 -2.566406 0.375 -3.734375 C 0.375 -4.890625 0.65625 -5.804688 1.21875 -6.484375 C 1.789062 -7.160156 2.59375 -7.53125 3.625 -7.59375 L 3.625 -6.859375 C 3.394531 -6.835938 3.226562 -6.753906 3.125 -6.609375 C 3.03125 -6.460938 2.984375 -6.234375 2.984375 -5.921875 L 2.984375 -1.53125 C 2.984375 -1.226562 3.03125 -1.003906 3.125 -0.859375 C 3.226562 -0.710938 3.394531 -0.628906 3.625 -0.609375 Z M 3.9375 0.140625 L 3.9375 -0.609375 C 4.195312 -0.640625 4.4375 -0.707031 4.65625 -0.8125 C 4.875 -0.925781 5.046875 -1.0625 5.171875 -1.21875 C 5.285156 -1.351562 5.390625 -1.550781 5.484375 -1.8125 C 5.578125 -2.070312 5.695312 -2.203125 5.84375 -2.203125 C 5.945312 -2.203125 6.023438 -2.164062 6.078125 -2.09375 C 6.140625 -2.03125 6.171875 -1.9375 6.171875 -1.8125 C 6.171875 -1.59375 6.070312 -1.332031 5.875 -1.03125 C 5.6875 -0.726562 5.445312 -0.476562 5.15625 -0.28125 C 4.988281 -0.164062 4.800781 -0.0703125 4.59375 0 C 4.394531 0.0703125 4.175781 0.117188 3.9375 0.140625 Z M 3.9375 -6.859375 L 3.9375 -7.59375 C 4.21875 -7.570312 4.503906 -7.5 4.796875 -7.375 C 5.085938 -7.25 5.257812 -7.1875 5.3125 -7.1875 C 5.382812 -7.1875 5.460938 -7.25 5.546875 -7.375 C 5.640625 -7.507812 5.753906 -7.578125 5.890625 -7.578125 C 5.992188 -7.578125 6.066406 -7.546875 6.109375 -7.484375 C 6.148438 -7.429688 6.171875 -7.320312 6.171875 -7.15625 L 6.171875 -5.140625 C 6.171875 -4.929688 6.144531 -4.78125 6.09375 -4.6875 C 6.050781 -4.59375 5.972656 -4.546875 5.859375 -4.546875 C 5.660156 -4.546875 5.507812 -4.734375 5.40625 -5.109375 C 5.332031 -5.359375 5.265625 -5.554688 5.203125 -5.703125 C 5.046875 -6.054688 4.859375 -6.332031 4.640625 -6.53125 C 4.429688 -6.726562 4.195312 -6.835938 3.9375 -6.859375 Z M 3.9375 -6.859375 "/></g></g></g><g fill="#000000" fill-opacity="1"><g transform="translate(171.336421, 144.230513)"><g><path d="M 3.671875 -4.1875 L 4.5 -4.1875 L 4.5 -6.421875 C 4.5 -6.535156 4.488281 -6.617188 4.46875 -6.671875 C 4.457031 -6.722656 4.429688 -6.765625 4.390625 -6.796875 C 4.367188 -6.816406 4.335938 -6.84375 4.296875 -6.875 C 4.171875 -6.957031 4.109375 -7.0625 4.109375 -7.1875 C 4.109375 -7.289062 4.132812 -7.359375 4.1875 -7.390625 C 4.238281 -7.429688 4.332031 -7.453125 4.46875 -7.453125 L 7.109375 -7.453125 C 7.265625 -7.453125 7.375 -7.425781 7.4375 -7.375 C 7.507812 -7.332031 7.546875 -7.253906 7.546875 -7.140625 C 7.546875 -7.003906 7.460938 -6.894531 7.296875 -6.8125 C 7.242188 -6.789062 7.207031 -6.773438 7.1875 -6.765625 C 7.113281 -6.722656 7.0625 -6.675781 7.03125 -6.625 C 7.007812 -6.570312 7 -6.46875 7 -6.3125 L 7 -1.0625 C 7 -0.957031 7.007812 -0.878906 7.03125 -0.828125 C 7.0625 -0.773438 7.113281 -0.726562 7.1875 -0.6875 C 7.207031 -0.675781 7.242188 -0.660156 7.296875 -0.640625 C 7.460938 -0.566406 7.546875 -0.453125 7.546875 -0.296875 C 7.546875 -0.191406 7.507812 -0.113281 7.4375 -0.0625 C 7.375 -0.0195312 7.265625 0 7.109375 0 L 4.46875 0 C 4.332031 0 4.238281 -0.0195312 4.1875 -0.0625 C 4.132812 -0.101562 4.109375 -0.171875 4.109375 -0.265625 C 4.109375 -0.390625 4.171875 -0.5 4.296875 -0.59375 C 4.335938 -0.613281 4.367188 -0.632812 4.390625 -0.65625 C 4.429688 -0.695312 4.457031 -0.742188 4.46875 -0.796875 C 4.488281 -0.847656 4.5 -0.925781 4.5 -1.03125 L 4.5 -3.5 L 3.671875 -3.5 Z M 0.734375 0 C 0.578125 0 0.460938 -0.0195312 0.390625 -0.0625 C 0.328125 -0.113281 0.296875 -0.191406 0.296875 -0.296875 C 0.296875 -0.453125 0.382812 -0.566406 0.5625 -0.640625 C 0.601562 -0.660156 0.632812 -0.675781 0.65625 -0.6875 C 0.738281 -0.726562 0.789062 -0.773438 0.8125 -0.828125 C 0.84375 -0.878906 0.859375 -0.988281 0.859375 -1.15625 L 0.859375 -6.3125 C 0.859375 -6.46875 0.84375 -6.570312 0.8125 -6.625 C 0.789062 -6.675781 0.738281 -6.722656 0.65625 -6.765625 C 0.632812 -6.773438 0.601562 -6.789062 0.5625 -6.8125 C 0.382812 -6.894531 0.296875 -7.003906 0.296875 -7.140625 C 0.296875 -7.253906 0.328125 -7.332031 0.390625 -7.375 C 0.460938 -7.425781 0.578125 -7.453125 0.734375 -7.453125 L 3.375 -7.453125 C 3.507812 -7.453125 3.601562 -7.429688 3.65625 -7.390625 C 3.707031 -7.359375 3.734375 -7.289062 3.734375 -7.1875 C 3.734375 -7.0625 3.671875 -6.957031 3.546875 -6.875 C 3.503906 -6.84375 3.476562 -6.816406 3.46875 -6.796875 C 3.425781 -6.765625 3.394531 -6.722656 3.375 -6.671875 C 3.351562 -6.617188 3.34375 -6.535156 3.34375 -6.421875 L 3.34375 -1.0625 C 3.34375 -0.84375 3.40625 -0.679688 3.53125 -0.578125 C 3.664062 -0.472656 3.734375 -0.367188 3.734375 -0.265625 C 3.734375 -0.171875 3.707031 -0.101562 3.65625 -0.0625 C 3.601562 -0.0195312 3.507812 0 3.375 0 Z M 0.734375 0 "/></g></g></g><g fill="#000000" fill-opacity="1"><g transform="translate(179.18145, 144.230513)"><g><path d="M 6.1875 0 L 4.640625 0 L 0.859375 -6.515625 C 0.765625 -6.679688 0.609375 -6.796875 0.390625 -6.859375 C 0.179688 -6.929688 0.078125 -7.035156 0.078125 -7.171875 C 0.078125 -7.273438 0.109375 -7.347656 0.171875 -7.390625 C 0.234375 -7.429688 0.335938 -7.453125 0.484375 -7.453125 L 3.3125 -7.453125 L 6.1875 -2.484375 Z M 6.1875 -3.078125 L 5.578125 -4.125 L 5.578125 -5.5 C 5.578125 -5.832031 5.554688 -6.066406 5.515625 -6.203125 C 5.484375 -6.335938 5.421875 -6.453125 5.328125 -6.546875 C 5.265625 -6.609375 5.144531 -6.6875 4.96875 -6.78125 C 4.800781 -6.882812 4.71875 -7 4.71875 -7.125 C 4.71875 -7.238281 4.75 -7.320312 4.8125 -7.375 C 4.882812 -7.425781 5 -7.453125 5.15625 -7.453125 L 6.609375 -7.453125 C 6.765625 -7.453125 6.878906 -7.425781 6.953125 -7.375 C 7.023438 -7.320312 7.0625 -7.238281 7.0625 -7.125 C 7.0625 -7 6.972656 -6.882812 6.796875 -6.78125 C 6.617188 -6.6875 6.5 -6.609375 6.4375 -6.546875 C 6.34375 -6.460938 6.273438 -6.351562 6.234375 -6.21875 C 6.203125 -6.09375 6.1875 -5.851562 6.1875 -5.5 Z M 0.953125 -5.796875 L 1.546875 -4.765625 L 1.546875 -1.734375 C 1.546875 -1.535156 1.566406 -1.367188 1.609375 -1.234375 C 1.648438 -1.097656 1.71875 -0.988281 1.8125 -0.90625 C 1.875 -0.84375 1.988281 -0.765625 2.15625 -0.671875 C 2.332031 -0.578125 2.421875 -0.46875 2.421875 -0.34375 C 2.421875 -0.226562 2.382812 -0.140625 2.3125 -0.078125 C 2.238281 -0.0234375 2.125 0 1.96875 0 L 0.53125 0 C 0.375 0 0.257812 -0.0234375 0.1875 -0.078125 C 0.113281 -0.140625 0.078125 -0.226562 0.078125 -0.34375 C 0.078125 -0.46875 0.164062 -0.578125 0.34375 -0.671875 C 0.519531 -0.765625 0.640625 -0.84375 0.703125 -0.90625 C 0.796875 -1 0.859375 -1.109375 0.890625 -1.234375 C 0.929688 -1.367188 0.953125 -1.613281 0.953125 -1.96875 Z M 0.953125 -5.796875 "/></g></g></g><g fill="#000000" fill-opacity="1"><g transform="translate(186.315165, 144.230513)"><g><path d="M 4.375 -1.484375 L 4.375 -5.984375 C 4.375 -6.359375 4.335938 -6.609375 4.265625 -6.734375 C 4.191406 -6.867188 4.0625 -6.945312 3.875 -6.96875 L 3.875 -7.59375 C 4.875 -7.507812 5.648438 -7.128906 6.203125 -6.453125 C 6.765625 -5.773438 7.046875 -4.867188 7.046875 -3.734375 C 7.046875 -2.585938 6.765625 -1.675781 6.203125 -1 C 5.648438 -0.320312 4.875 0.0546875 3.875 0.140625 L 3.875 -0.5 C 4.0625 -0.519531 4.191406 -0.59375 4.265625 -0.71875 C 4.335938 -0.84375 4.375 -1.097656 4.375 -1.484375 Z M 3.03125 -1.484375 C 3.03125 -1.109375 3.066406 -0.851562 3.140625 -0.71875 C 3.210938 -0.59375 3.347656 -0.519531 3.546875 -0.5 L 3.546875 0.140625 C 2.546875 0.0664062 1.765625 -0.304688 1.203125 -0.984375 C 0.648438 -1.671875 0.375 -2.585938 0.375 -3.734375 C 0.375 -4.867188 0.648438 -5.773438 1.203125 -6.453125 C 1.765625 -7.128906 2.546875 -7.507812 3.546875 -7.59375 L 3.546875 -6.96875 C 3.347656 -6.945312 3.210938 -6.867188 3.140625 -6.734375 C 3.066406 -6.609375 3.03125 -6.359375 3.03125 -5.984375 Z M 3.03125 -1.484375 "/></g></g></g><g fill="#000000" fill-opacity="1"><g transform="translate(193.716911, 144.230513)"><g><path d="M 3.671875 0 L 3.671875 -0.6875 C 3.960938 -0.707031 4.222656 -0.789062 4.453125 -0.9375 C 4.679688 -1.09375 4.863281 -1.304688 5 -1.578125 C 5.0625 -1.722656 5.128906 -1.910156 5.203125 -2.140625 C 5.296875 -2.453125 5.410156 -2.609375 5.546875 -2.609375 C 5.671875 -2.609375 5.757812 -2.554688 5.8125 -2.453125 C 5.863281 -2.359375 5.890625 -2.128906 5.890625 -1.765625 L 5.890625 0 Z M 0.734375 0 C 0.578125 0 0.460938 -0.0195312 0.390625 -0.0625 C 0.328125 -0.113281 0.296875 -0.191406 0.296875 -0.296875 C 0.296875 -0.453125 0.382812 -0.566406 0.5625 -0.640625 C 0.601562 -0.660156 0.632812 -0.675781 0.65625 -0.6875 C 0.738281 -0.726562 0.789062 -0.773438 0.8125 -0.828125 C 0.84375 -0.878906 0.859375 -0.988281 0.859375 -1.15625 L 0.859375 -6.3125 C 0.859375 -6.46875 0.84375 -6.570312 0.8125 -6.625 C 0.789062 -6.675781 0.738281 -6.722656 0.65625 -6.765625 C 0.632812 -6.773438 0.601562 -6.789062 0.5625 -6.8125 C 0.382812 -6.894531 0.296875 -7.003906 0.296875 -7.140625 C 0.296875 -7.253906 0.328125 -7.332031 0.390625 -7.375 C 0.460938 -7.425781 0.578125 -7.453125 0.734375 -7.453125 L 3.46875 -7.453125 C 3.625 -7.453125 3.734375 -7.425781 3.796875 -7.375 C 3.867188 -7.332031 3.90625 -7.253906 3.90625 -7.140625 C 3.90625 -7.003906 3.816406 -6.894531 3.640625 -6.8125 C 3.597656 -6.789062 3.566406 -6.773438 3.546875 -6.765625 C 3.472656 -6.722656 3.421875 -6.675781 3.390625 -6.625 C 3.359375 -6.570312 3.34375 -6.46875 3.34375 -6.3125 L 3.34375 0 Z M 0.734375 0 "/></g></g></g><g fill="#000000" fill-opacity="1"><g transform="translate(200.221791, 144.230513)"><g><path d="M 4.375 -1.484375 L 4.375 -5.984375 C 4.375 -6.359375 4.335938 -6.609375 4.265625 -6.734375 C 4.191406 -6.867188 4.0625 -6.945312 3.875 -6.96875 L 3.875 -7.59375 C 4.875 -7.507812 5.648438 -7.128906 6.203125 -6.453125 C 6.765625 -5.773438 7.046875 -4.867188 7.046875 -3.734375 C 7.046875 -2.585938 6.765625 -1.675781 6.203125 -1 C 5.648438 -0.320312 4.875 0.0546875 3.875 0.140625 L 3.875 -0.5 C 4.0625 -0.519531 4.191406 -0.59375 4.265625 -0.71875 C 4.335938 -0.84375 4.375 -1.097656 4.375 -1.484375 Z M 3.03125 -1.484375 C 3.03125 -1.109375 3.066406 -0.851562 3.140625 -0.71875 C 3.210938 -0.59375 3.347656 -0.519531 3.546875 -0.5 L 3.546875 0.140625 C 2.546875 0.0664062 1.765625 -0.304688 1.203125 -0.984375 C 0.648438 -1.671875 0.375 -2.585938 0.375 -3.734375 C 0.375 -4.867188 0.648438 -5.773438 1.203125 -6.453125 C 1.765625 -7.128906 2.546875 -7.507812 3.546875 -7.59375 L 3.546875 -6.96875 C 3.347656 -6.945312 3.210938 -6.867188 3.140625 -6.734375 C 3.066406 -6.609375 3.03125 -6.359375 3.03125 -5.984375 Z M 3.03125 -1.484375 "/></g></g></g><g fill="#000000" fill-opacity="1"><g transform="translate(207.623528, 144.230513)"><g><path d="M 3.796875 0.140625 L 3.796875 -0.53125 C 3.953125 -0.539062 4.0625 -0.585938 4.125 -0.671875 C 4.1875 -0.765625 4.21875 -0.914062 4.21875 -1.125 L 4.21875 -2.75 C 4.21875 -2.875 4.203125 -2.957031 4.171875 -3 C 4.148438 -3.039062 4.101562 -3.082031 4.03125 -3.125 C 4 -3.132812 3.96875 -3.144531 3.9375 -3.15625 C 3.738281 -3.238281 3.640625 -3.359375 3.640625 -3.515625 C 3.640625 -3.628906 3.671875 -3.707031 3.734375 -3.75 C 3.804688 -3.789062 3.929688 -3.8125 4.109375 -3.8125 L 6.390625 -3.8125 C 6.523438 -3.8125 6.625 -3.785156 6.6875 -3.734375 C 6.757812 -3.679688 6.796875 -3.601562 6.796875 -3.5 C 6.796875 -3.414062 6.78125 -3.347656 6.75 -3.296875 C 6.71875 -3.253906 6.660156 -3.210938 6.578125 -3.171875 C 6.523438 -3.128906 6.488281 -3.085938 6.46875 -3.046875 C 6.445312 -3.003906 6.4375 -2.929688 6.4375 -2.828125 L 6.4375 -0.953125 C 6.039062 -0.597656 5.617188 -0.332031 5.171875 -0.15625 C 4.734375 0.0195312 4.273438 0.117188 3.796875 0.140625 Z M 3.46875 -0.5 L 3.46875 0.140625 C 2.488281 0.046875 1.726562 -0.335938 1.1875 -1.015625 C 0.644531 -1.691406 0.375 -2.597656 0.375 -3.734375 C 0.375 -4.859375 0.640625 -5.753906 1.171875 -6.421875 C 1.710938 -7.097656 2.476562 -7.488281 3.46875 -7.59375 L 3.46875 -6.96875 C 3.28125 -6.9375 3.148438 -6.851562 3.078125 -6.71875 C 3.015625 -6.59375 2.984375 -6.347656 2.984375 -5.984375 L 2.984375 -1.484375 C 2.984375 -1.117188 3.015625 -0.867188 3.078125 -0.734375 C 3.148438 -0.597656 3.28125 -0.519531 3.46875 -0.5 Z M 6.40625 -5.34375 L 6.40625 -5.234375 C 6.40625 -5.023438 6.367188 -4.875 6.296875 -4.78125 C 6.234375 -4.695312 6.128906 -4.65625 5.984375 -4.65625 C 5.773438 -4.65625 5.609375 -4.847656 5.484375 -5.234375 C 5.378906 -5.523438 5.28125 -5.753906 5.1875 -5.921875 C 5.007812 -6.242188 4.800781 -6.492188 4.5625 -6.671875 C 4.320312 -6.847656 4.066406 -6.945312 3.796875 -6.96875 L 3.796875 -7.59375 C 4.117188 -7.570312 4.453125 -7.5 4.796875 -7.375 C 5.140625 -7.25 5.335938 -7.1875 5.390625 -7.1875 C 5.472656 -7.1875 5.5625 -7.25 5.65625 -7.375 C 5.757812 -7.507812 5.890625 -7.578125 6.046875 -7.578125 C 6.171875 -7.578125 6.257812 -7.546875 6.3125 -7.484375 C 6.375 -7.429688 6.40625 -7.316406 6.40625 -7.140625 Z M 6.40625 -5.34375 "/></g></g></g><g fill="#000000" fill-opacity="1"><g transform="translate(214.757244, 144.230513)"><g><path d="M 2.34375 -3.015625 L 0.90625 -6.390625 C 0.894531 -6.410156 0.882812 -6.429688 0.875 -6.453125 C 0.800781 -6.628906 0.679688 -6.753906 0.515625 -6.828125 C 0.429688 -6.867188 0.375 -6.910156 0.34375 -6.953125 C 0.3125 -6.992188 0.296875 -7.050781 0.296875 -7.125 C 0.296875 -7.25 0.332031 -7.332031 0.40625 -7.375 C 0.488281 -7.425781 0.648438 -7.453125 0.890625 -7.453125 L 3.3125 -7.453125 C 3.53125 -7.453125 3.679688 -7.425781 3.765625 -7.375 C 3.859375 -7.320312 3.90625 -7.226562 3.90625 -7.09375 C 3.90625 -6.988281 3.847656 -6.898438 3.734375 -6.828125 C 3.617188 -6.765625 3.5625 -6.695312 3.5625 -6.625 C 3.5625 -6.59375 3.566406 -6.550781 3.578125 -6.5 C 3.585938 -6.457031 3.609375 -6.40625 3.640625 -6.34375 L 4.875 -3.515625 L 4.875 -1.03125 C 4.875 -0.925781 4.894531 -0.847656 4.9375 -0.796875 C 4.976562 -0.753906 5.046875 -0.71875 5.140625 -0.6875 C 5.304688 -0.644531 5.410156 -0.597656 5.453125 -0.546875 C 5.503906 -0.492188 5.53125 -0.410156 5.53125 -0.296875 C 5.53125 -0.179688 5.492188 -0.101562 5.421875 -0.0625 C 5.347656 -0.0195312 5.210938 0 5.015625 0 L 2.203125 0 C 1.992188 0 1.851562 -0.0195312 1.78125 -0.0625 C 1.71875 -0.101562 1.6875 -0.179688 1.6875 -0.296875 C 1.6875 -0.472656 1.789062 -0.597656 2 -0.671875 C 2.050781 -0.679688 2.085938 -0.691406 2.109375 -0.703125 C 2.203125 -0.734375 2.265625 -0.769531 2.296875 -0.8125 C 2.328125 -0.863281 2.34375 -0.960938 2.34375 -1.109375 Z M 5.046875 -3.90625 L 4.75 -4.546875 L 5.34375 -5.921875 C 5.363281 -5.972656 5.378906 -6.023438 5.390625 -6.078125 C 5.398438 -6.140625 5.40625 -6.195312 5.40625 -6.25 C 5.40625 -6.363281 5.378906 -6.457031 5.328125 -6.53125 C 5.273438 -6.613281 5.195312 -6.679688 5.09375 -6.734375 C 5.070312 -6.742188 5.035156 -6.757812 4.984375 -6.78125 C 4.796875 -6.863281 4.703125 -6.976562 4.703125 -7.125 C 4.703125 -7.238281 4.738281 -7.320312 4.8125 -7.375 C 4.894531 -7.425781 5.023438 -7.453125 5.203125 -7.453125 L 6.515625 -7.453125 C 6.703125 -7.453125 6.832031 -7.425781 6.90625 -7.375 C 6.976562 -7.332031 7.015625 -7.253906 7.015625 -7.140625 C 7.015625 -6.984375 6.90625 -6.867188 6.6875 -6.796875 C 6.601562 -6.773438 6.546875 -6.753906 6.515625 -6.734375 C 6.390625 -6.660156 6.28125 -6.5625 6.1875 -6.4375 C 6.101562 -6.3125 6.015625 -6.140625 5.921875 -5.921875 Z M 5.046875 -3.90625 "/></g></g></g><g clip-path="url(#aa7d159f2a)"><g clip-path="url(#6b518db9d2)"><path fill="#000000" d="M 15.1875 144.914062 L 15.1875 127.992188 L 55.378906 127.992188 L 55.378906 144.914062 Z M 15.1875 144.914062 " fill-opacity="1" fill-rule="nonzero"/></g></g><g clip-path="url(#14eb8d7c8e)"><g clip-path="url(#7542a39dd2)"><path stroke-linecap="butt" transform="matrix(0, -0.75, 0.75, 0, 15.200925, 144.914902)" fill="none" stroke-linejoin="miter" d="M 0.00111928 -0.00227516 L 12.605288 -0.00227516 L 22.547997 26.763353 L 12.605288 53.528982 L 0.00111928 53.528982 L 9.943829 26.763353 Z M 0.00111928 -0.00227516 " stroke="#000000" stroke-width="2" stroke-opacity="1" stroke-miterlimit="4"/></g></g><g clip-path="url(#ebe7e5dc0e)"><g clip-path="url(#51c6b5f338)"><path fill="#000000" d="M 12.414062 126.863281 L 12.414062 107.601562 L 58.160156 107.601562 L 58.160156 126.863281 Z M 12.414062 126.863281 " fill-opacity="1" fill-rule="nonzero"/></g></g><g clip-path="url(#5c1d78803c)"><g clip-path="url(#ec49e5ce87)"><path stroke-linecap="butt" transform="matrix(0, -0.75, 0.75, 0, 12.420756, 126.863692)" fill="none" stroke-linejoin="miter" d="M 0.00054755 0.00149176 L 14.349508 0.00149176 L 25.672426 30.475454 L 14.349508 60.944208 L 0.00054755 60.944208 L 11.318257 30.475454 Z M 0.00054755 0.00149176 " stroke="#000000" stroke-width="2" stroke-opacity="1" stroke-miterlimit="4"/></g></g><g clip-path="url(#dd1912d913)"><g clip-path="url(#074df9d658)"><path fill="#000000" d="M 12.414062 106.472656 L 12.414062 87.210938 L 58.160156 87.210938 L 58.160156 106.472656 Z M 12.414062 106.472656 " fill-opacity="1" fill-rule="nonzero"/></g></g><g clip-path="url(#59c491efae)"><g clip-path="url(#a5291a0e8b)"><path stroke-linecap="butt" transform="matrix(0, -0.75, 0.75, 0, 12.420756, 106.470857)" fill="none" stroke-linejoin="miter" d="M -0.00239872 0.00149176 L 14.35177 0.00149176 L 25.66948 30.475454 L 14.35177 60.944208 L -0.00239872 60.944208 L 11.320519 30.475454 Z M -0.00239872 0.00149176 " stroke="#000000" stroke-width="2" stroke-opacity="1" stroke-miterlimit="4"/></g></g></svg>